<svg width="205" height="52" viewBox="0 0 205 52" fill="none" xmlns="http://www.w3.org/2000/svg">
<path d="M0 26C0 11.6406 11.6406 0 26 0H179C193.359 0 205 11.6406 205 26V26C205 40.3594 193.359 52 179 52H26C11.6406 52 0 40.3594 0 26V26Z" fill="#33363D"/>
<path d="M70.3418 19.2031H77.1973V17.9551H79.1309V23.2637H68.4082V17.9551H70.3418V19.2031ZM66.5273 24.2832H81.0117V25.8125H66.5273V24.2832ZM68.2324 26.9375H79.2012V30.7695H70.166V31.9297H79.6406V33.4238H68.25V29.3984H77.2852V28.3789H68.2324V26.9375ZM77.1973 21.7871V20.627H70.3418V21.7871H77.1973ZM96.6035 31.7188H82.084V30.1016H88.3418V27.5176H83.8066V22.3145H92.9473V20.3457H83.7715V18.7637H94.8809V23.8613H85.7578V25.918H95.25V27.5176H90.2754V30.1016H96.6035V31.7188ZM110.279 21.0137C110.279 21.9629 110.268 22.7773 110.244 23.457C110.227 24.1367 110.177 24.916 110.095 25.7949C110.013 26.6738 109.881 27.6348 109.699 28.6777L107.713 28.502C107.906 27.5352 108.047 26.6211 108.135 25.7598C108.223 24.8926 108.275 24.1191 108.293 23.4395C108.316 22.7598 108.328 21.9512 108.328 21.0137V20.8027H99.1699V19.2207H110.279V21.0137ZM97.6406 29.7852H112.125V31.3848H97.6406V29.7852ZM129.914 23.7207H132.357V25.373H129.914V33.5645H127.963V17.6738H129.914V23.7207ZM118.031 18.9746H119.965V22.9473H123.709V18.9746H125.66V29.8379H118.031V18.9746ZM123.709 28.2383V24.4766H119.965V28.2383H123.709ZM147.545 31.7188H133.025V30.1016H139.283V27.5176H134.748V22.3145H143.889V20.3457H134.713V18.7637H145.822V23.8613H136.699V25.918H146.191V27.5176H141.217V30.1016H147.545V31.7188ZM161.027 23.8789H163.383V25.5137H161.027V33.5293H159.076V17.6738H161.027V23.8789ZM148.494 29.1875C150.434 28.2207 151.928 27.0576 152.977 25.6982C154.025 24.333 154.646 22.748 154.84 20.9434H149.355V19.3262H156.826C156.814 24.541 154.406 28.332 149.602 30.6992L148.494 29.1875ZM177.41 33.5645H175.441V17.6738H177.41V33.5645ZM164.244 29.1875C166.295 28.2148 167.833 27.0518 168.858 25.6982C169.89 24.3447 170.496 22.748 170.678 20.9082H165.053V19.3613H172.664C172.664 21.8867 172.093 24.1016 170.95 26.0059C169.808 27.9102 167.912 29.4922 165.264 30.752L164.244 29.1875Z" fill="white"/>
<path d="M49.8651 42H31.1349C27.7688 42 25 39.3205 25 36.063V17.937C25 14.6795 27.7688 12 31.1349 12H49.8651C53.2312 12 56 14.6795 56 17.937V36.063C56 39.3205 53.2312 42 49.8651 42Z" fill="black"/>
<path d="M49.8659 17.0469H48.6172V37.1169H49.8659V17.0469Z" fill="#3CB15B"/>
<path d="M37.9218 22.6719C36.456 22.6719 35.0987 23.1973 34.0129 24.0379V18.4688H30.7012V35.6491H34.0129V34.5983C35.0987 35.439 36.456 35.9644 37.9218 35.9644C41.505 35.9644 44.3824 32.9696 44.3824 29.2919C44.3824 25.6667 41.505 22.6719 37.9218 22.6719ZM37.5418 33.0747C35.4788 33.0747 33.85 31.3934 33.85 29.2919C33.85 27.1903 35.533 25.509 37.5418 25.509C39.5506 25.509 41.2336 27.1903 41.2336 29.2919C41.2336 31.3934 39.5506 33.0747 37.5418 33.0747Z" fill="#3CB15B"/>
</svg>
