<svg width="63" height="63" viewBox="0 0 63 63" fill="none" xmlns="http://www.w3.org/2000/svg">
<g clip-path="url(#clip0_364_1055)">
<path d="M58.804 63C58.1717 63 57.6544 62.4793 57.6544 61.843V43.9091C57.6544 37.1983 52.2511 31.7025 45.5257 31.7025H38.398C37.7657 31.7025 37.2484 31.1818 37.2484 30.5455V27.7107C37.2484 27.0744 37.7657 26.5537 38.398 26.5537H40.3524C40.7547 26.438 42.6516 25.9752 42.6516 24.3554V21C42.6516 20.3636 43.169 19.843 43.8013 19.843H45.1808L43.8013 15.2149C43.7438 15.0413 43.7438 14.8678 43.7438 14.6942C43.8013 14.1736 43.8588 13.595 43.8588 13.0744C43.9162 7.17355 39.0878 2.31405 33.2246 2.31405C27.304 2.31405 22.533 7.17355 22.533 13.0744C22.533 15.7355 23.5102 18.281 25.2921 20.3058C25.4646 20.5372 25.5796 20.7686 25.5796 21.0579V30.5455C25.5796 31.1818 25.0622 31.7025 24.4299 31.7025H17.8195C11.1516 31.7025 5.69087 37.1405 5.69087 43.9091V61.843C5.69087 62.4793 5.17354 63 4.54124 63C3.90894 63 3.3916 62.4793 3.3916 61.843V43.9091C3.3916 35.9256 9.82956 29.3884 17.8195 29.3884H23.2228V21.5207C21.2684 19.1488 20.1763 16.1983 20.1763 13.1322C20.1763 5.90083 26.0394 0 33.2246 0C40.4098 0 46.2155 5.90083 46.2155 13.0744C46.2155 13.6529 46.158 14.2314 46.1005 14.7521L47.8825 20.6529C47.9974 21 47.94 21.405 47.71 21.6942C47.4801 21.9835 47.1352 22.157 46.7903 22.157H45.0084V24.3554C45.0084 27.3058 42.1918 28.5785 40.7547 28.8678C40.6973 28.8678 40.6398 28.8678 40.5823 28.8678H39.6626V29.3884H45.6407C53.5732 29.3884 60.0686 35.8678 60.0686 43.9091V61.843C59.9536 62.4793 59.4363 63 58.804 63Z" fill="#333333"/>
<path d="M13.2785 63.0017C12.6462 63.0017 12.1289 62.4811 12.1289 61.8447V47.5555C12.1289 46.9191 12.6462 46.3984 13.2785 46.3984C13.9108 46.3984 14.4282 46.9191 14.4282 47.5555V61.8447C14.4282 62.4811 13.9108 63.0017 13.2785 63.0017Z" fill="#333333"/>
<path d="M50.0666 63.0017C49.4343 63.0017 48.917 62.4811 48.917 61.8447V47.5555C48.917 46.9191 49.4343 46.3984 50.0666 46.3984C50.6989 46.3984 51.2163 46.9191 51.2163 47.5555V61.8447C51.2163 62.4811 50.6989 63.0017 50.0666 63.0017Z" fill="#333333"/>
<path d="M15.4624 33.7349C16.9545 33.7349 18.164 32.5175 18.164 31.0159C18.164 29.5142 16.9545 28.2969 15.4624 28.2969C13.9703 28.2969 12.7607 29.5142 12.7607 31.0159C12.7607 32.5175 13.9703 33.7349 15.4624 33.7349Z" fill="#55DAF2"/>
<path d="M15.4626 34.8302C13.3358 34.8302 11.6113 33.0947 11.6113 30.9542C11.6113 28.8137 13.3358 27.0781 15.4626 27.0781C17.5894 27.0781 19.3139 28.8137 19.3139 30.9542C19.2564 33.0947 17.5319 34.8302 15.4626 34.8302ZM15.4626 29.45C14.6004 29.45 13.9106 30.1442 13.9106 31.012C13.9106 31.8798 14.6004 32.574 15.4626 32.574C16.3248 32.574 17.0146 31.8798 17.0146 31.012C16.9571 30.1442 16.2673 29.45 15.4626 29.45Z" fill="#55DAF2"/>
<path d="M49.9516 58.3755C51.4437 58.3755 52.6533 57.1582 52.6533 55.6565C52.6533 54.1548 51.4437 52.9375 49.9516 52.9375C48.4596 52.9375 47.25 54.1548 47.25 55.6565C47.25 57.1582 48.4596 58.3755 49.9516 58.3755Z" fill="#55DAF2"/>
<path d="M49.9519 59.5333C47.825 59.5333 46.1006 57.7978 46.1006 55.6573C46.1006 53.5168 47.825 51.7812 49.9519 51.7812C52.0787 51.7812 53.8031 53.5168 53.8031 55.6573C53.7457 57.7978 52.0212 59.5333 49.9519 59.5333ZM49.9519 54.1531C49.0896 54.1531 48.3999 54.8474 48.3999 55.7151C48.3999 56.5829 49.0896 57.2771 49.9519 57.2771C50.8141 57.2771 51.5039 56.5829 51.5039 55.7151C51.4464 54.8474 50.7566 54.1531 49.9519 54.1531Z" fill="#55DAF2"/>
<path d="M10.8641 27.0701L6.26551 24.0619L5.28832 27.0701L0 22.442L3.85128 23.2519L4.82847 20.3594L10.8641 27.0701Z" fill="#55DAF2"/>
<path d="M14.026 24.5824L12.1866 17.8716L8.73766 19.9543L7.64551 11.2188L10.5771 15.1526L13.8535 13.2435L14.026 24.5824Z" fill="#55DAF2"/>
<path d="M53.9756 50.5619L58.2292 45.0661L54.6079 43.5619L60.9309 37.4297L59.4938 42.1735L63.0002 43.6776L53.9756 50.5619Z" fill="#55DAF2"/>
</g>
<defs>
<clipPath id="clip0_364_1055">
<rect width="63" height="63" fill="white"/>
</clipPath>
</defs>
</svg>
