<svg width="24" height="26" viewBox="0 0 24 26" fill="none" xmlns="http://www.w3.org/2000/svg">
<path d="M12.016 0.609375C5.71067 0.609375 0.59375 5.44294 0.59375 11.4257C0.59375 15.8537 2.40943 17.9494 4.88536 19.876V25.0476C4.88536 25.2842 5.14946 25.4194 5.34753 25.2842L9.67215 21.9717L9.77119 22.0055C10.4975 22.1407 11.2568 22.2083 12.016 22.2083C18.3214 22.2083 23.4383 17.3747 23.4383 11.3919C23.4383 5.47674 18.3214 0.609375 12.016 0.609375Z" fill="#434343"/>
<path d="M12.0165 0C5.38102 0 0 5.10397 0 11.3572C0 15.9879 1.88171 18.2188 4.48968 20.2131V25.6889C4.48968 25.9593 4.7868 26.0945 4.98487 25.9255L9.54058 22.4777L9.63962 22.5115C10.3989 22.6467 11.1912 22.7482 11.9835 22.7482C18.619 22.7482 24 17.6442 24 11.391C24 5.10397 18.652 0 12.0165 0ZM7.989 14.2641C9.17744 14.2641 10.1678 13.5542 10.4649 12.4388H12.2146C11.7854 14.5683 10.1678 15.9879 7.989 15.9879C5.48006 15.9879 3.4663 14.0613 3.4663 11.391C3.4663 8.72069 5.48006 6.79403 7.989 6.79403C10.1678 6.79403 11.8184 8.21367 12.2146 10.4107H10.4649C10.2008 9.22771 9.14443 8.48408 7.95598 8.48408C6.27235 8.48408 5.11692 9.73472 5.11692 11.391C5.14993 13.0472 6.43741 14.2641 7.989 14.2641ZM19.4443 15.7851H17.8597V12.1008C17.8597 11.2558 17.3645 10.7826 16.6382 10.7826C15.8129 10.7826 15.2847 11.2896 15.2847 12.3374V15.7513H13.7001V6.79403H15.2847V10.1741C15.6809 9.56572 16.2751 9.29531 17.1334 9.29531C17.8267 9.29531 18.3549 9.53192 18.8171 10.0051C19.2462 10.4783 19.4773 11.1206 19.4773 11.9318V15.7851H19.4443Z" fill="white"/>
</svg>
