<svg width="21" height="21" viewBox="0 0 21 21" fill="none" xmlns="http://www.w3.org/2000/svg">
<path d="M1.52591 0.317825C1.80424 0.0398916 2.29131 0.0398916 2.56964 0.317825L7.12728 4.86899C7.33603 5.07744 7.40561 5.39011 7.26644 5.66805C6.22271 7.99574 4.55274 8.48213 8.13622 12.0605C11.7197 15.6389 12.172 13.9713 14.503 12.9291C14.7813 12.7901 15.0944 12.8596 15.3032 13.068L19.7913 17.5497C20.0696 17.8276 20.0696 18.2793 19.7913 18.592C16.6253 21.7535 10.4672 19.7384 5.42251 14.7356C0.343008 9.66334 -1.64009 3.47932 1.52591 0.317825Z" fill="white"/>
<path d="M19.3046 9.18221C19.6177 6.95874 18.9219 4.63104 17.1823 2.9287C15.4776 1.22636 13.1466 0.531523 10.9199 0.809456" stroke="white" stroke-width="1.5" stroke-miterlimit="10"/>
<path d="M10.9199 4.48807C12.2072 4.14066 13.5988 4.45333 14.6078 5.46084C15.6167 6.46835 15.9298 7.89276 15.5819 9.14346" stroke="white" stroke-width="1.5" stroke-miterlimit="10"/>
</svg>
