<svg width="24" height="25" viewBox="0 0 24 25" fill="none" xmlns="http://www.w3.org/2000/svg">
<path d="M23.1009 0H21.5957V25H23.1009V0Z" fill="white"/>
<path d="M8.70421 7.00124C6.93719 7.00124 5.30106 7.65569 3.99215 8.70281V1.76562H0V23.1662H3.99215V21.8573C5.30106 22.9044 6.93719 23.5589 8.70421 23.5589C13.0236 23.5589 16.4922 19.8285 16.4922 15.2473C16.4922 10.7316 13.0236 7.00124 8.70421 7.00124ZM8.24609 19.9594C5.75917 19.9594 3.79582 17.8651 3.79582 15.2473C3.79582 12.6295 5.82462 10.5353 8.24609 10.5353C10.6676 10.5353 12.6964 12.6295 12.6964 15.2473C12.6964 17.8651 10.6676 19.9594 8.24609 19.9594Z" fill="white"/>
</svg>
