<svg width="21" height="22" viewBox="0 0 21 22" fill="none" xmlns="http://www.w3.org/2000/svg">
<path d="M20.3285 0H19.0039V22H20.3285V0Z" fill="white"/>
<path d="M7.6597 6.16203C6.10473 6.16203 4.66493 6.73795 3.5131 7.65941V1.55469H0V20.3872H3.5131V19.2354C4.66493 20.1568 6.10473 20.7327 7.6597 20.7327C11.4608 20.7327 14.5131 17.45 14.5131 13.4186C14.5131 9.44476 11.4608 6.16203 7.6597 6.16203ZM7.25656 17.5652C5.06807 17.5652 3.34032 15.7223 3.34032 13.4186C3.34032 11.1149 5.12567 9.27198 7.25656 9.27198C9.38746 9.27198 11.1728 11.1149 11.1728 13.4186C11.1728 15.7223 9.38746 17.5652 7.25656 17.5652Z" fill="white"/>
</svg>
