<svg width="24" height="27" viewBox="0 0 24 27" fill="none" xmlns="http://www.w3.org/2000/svg">
<path d="M1 1H23" stroke="black" stroke-width="2" stroke-linecap="round"/>
<path d="M12.7071 7.79289C12.3166 7.40237 11.6834 7.40237 11.2929 7.79289L4.92893 14.1569C4.53841 14.5474 4.53841 15.1805 4.92893 15.5711C5.31946 15.9616 5.95262 15.9616 6.34315 15.5711L12 9.91421L17.6569 15.5711C18.0474 15.9616 18.6805 15.9616 19.0711 15.5711C19.4616 15.1805 19.4616 14.5474 19.0711 14.1569L12.7071 7.79289ZM11 25.5C11 26.0523 11.4477 26.5 12 26.5C12.5523 26.5 13 26.0523 13 25.5L12 25.5L11 25.5ZM12 8.5L11 8.5L11 25.5L12 25.5L13 25.5L13 8.5L12 8.5Z" fill="black"/>
</svg>
