<svg width="23" height="23" viewBox="0 0 23 23" fill="none" xmlns="http://www.w3.org/2000/svg">
<path d="M20.3661 22.1339C20.8543 22.622 21.6457 22.622 22.1339 22.1339C22.622 21.6457 22.622 20.8543 22.1339 20.3661L21.25 21.25L20.3661 22.1339ZM9.96766 18.6853V17.4353C5.84338 17.4353 2.5 14.0919 2.5 9.96766H1.25H0C0 15.4726 4.46267 19.9353 9.96766 19.9353V18.6853ZM18.6853 9.96766H17.4353C17.4353 14.0919 14.0919 17.4353 9.96766 17.4353V18.6853V19.9353C15.4726 19.9353 19.9353 15.4726 19.9353 9.96766H18.6853ZM9.96766 1.25V2.5C14.0919 2.5 17.4353 5.84338 17.4353 9.96766H18.6853H19.9353C19.9353 4.46267 15.4726 0 9.96766 0V1.25ZM9.96766 1.25V0C4.46267 0 0 4.46267 0 9.96766H1.25H2.5C2.5 5.84338 5.84338 2.5 9.96766 2.5V1.25ZM16.25 16.25L15.3661 17.1339L20.3661 22.1339L21.25 21.25L22.1339 20.3661L17.1339 15.3661L16.25 16.25Z" fill="#444444"/>
</svg>
