<svg width="54" height="51" viewBox="0 0 54 51" fill="none" xmlns="http://www.w3.org/2000/svg">
<g clip-path="url(#clip0_364_1019)">
<path d="M14.6919 51H2.04329C1.50815 51 1.07031 50.55 1.07031 50C1.07031 49.45 1.50815 49 2.04329 49H14.6919C17.9027 49 20.919 47.7 23.2054 45.4C25.4919 43.05 26.7082 39.95 26.7082 36.65V33.25C26.7082 32.95 26.8541 32.65 27.0973 32.45C28.946 31 31.0865 30.8 32.546 30.9C32.7892 30.9 33.0811 31.05 33.2271 31.25C34.8325 33.2 37.2163 34.3 39.6973 34.3H43.4919C48.2109 34.3 52.0541 30.35 52.0541 25.5C52.0541 20.65 48.2109 16.7 43.4919 16.7H39.6973C37.2163 16.7 34.8325 17.8 33.2271 19.75C33.0325 19.95 32.7892 20.1 32.546 20.1C31.0865 20.2 28.946 20 27.0973 18.55C26.8541 18.35 26.7082 18.05 26.7082 17.75V14.35C26.7082 7.55 21.3082 2 14.6919 2H2.04329C1.50815 2 1.07031 1.55 1.07031 1C1.07031 0.45 1.50815 0 2.04329 0H14.6919C22.3784 0 28.6541 6.45 28.6541 14.35V17.25C29.8217 18 31.0379 18.15 32.0595 18.15C34.0541 15.95 36.8271 14.7 39.746 14.7H43.5406C49.3298 14.7 54.0487 19.55 54.0487 25.5C54.0487 31.45 49.3298 36.3 43.5406 36.3H39.746C36.8271 36.3 34.0541 35.05 32.0595 32.85H32.0109C31.0379 32.85 29.773 33.05 28.6541 33.75V36.65C28.6541 40.5 27.1946 44.1 24.5676 46.8C21.8919 49.5 18.3892 51 14.6919 51Z" fill="#333333"/>
<path d="M53.0268 51H3.5511C3.01596 51 2.57812 50.55 2.57812 50C2.57812 49.45 3.01596 49 3.5511 49H53.0268C53.5619 49 53.9997 49.45 53.9997 50C53.9997 50.55 53.5619 51 53.0268 51Z" fill="#333333"/>
<path d="M32.5941 26.5H32.3509C31.8158 26.5 31.3779 26.05 31.3779 25.5C31.3779 24.95 31.8158 24.5 32.3509 24.5H32.5941C33.1293 24.5 33.5671 24.95 33.5671 25.5C33.5671 26.05 33.1293 26.5 32.5941 26.5Z" fill="#55DAF2"/>
<path d="M28.8973 26.5H28.4108C27.8756 26.5 27.4378 26.05 27.4378 25.5C27.4378 24.95 27.8756 24.5 28.4108 24.5H28.8973C29.4324 24.5 29.8702 24.95 29.8702 25.5C29.8702 26.05 29.4324 26.5 28.8973 26.5ZM24.9567 26.5H24.4702C23.9351 26.5 23.4973 26.05 23.4973 25.5C23.4973 24.95 23.9351 24.5 24.4702 24.5H24.9567C25.4919 24.5 25.9297 24.95 25.9297 25.5C25.9297 26.05 25.4919 26.5 24.9567 26.5ZM20.9675 26.5H20.481C19.9459 26.5 19.5081 26.05 19.5081 25.5C19.5081 24.95 19.9459 24.5 20.481 24.5H20.9675C21.5027 24.5 21.9405 24.95 21.9405 25.5C21.9405 26.05 21.5027 26.5 20.9675 26.5ZM17.027 26.5H16.5405C16.0054 26.5 15.5675 26.05 15.5675 25.5C15.5675 24.95 16.0054 24.5 16.5405 24.5H17.027C17.5621 24.5 18 24.95 18 25.5C18 26.05 17.5621 26.5 17.027 26.5ZM13.0865 26.5H12.6C12.0648 26.5 11.627 26.05 11.627 25.5C11.627 24.95 12.0648 24.5 12.6 24.5H13.0865C13.6216 24.5 14.0594 24.95 14.0594 25.5C14.0594 26.05 13.6216 26.5 13.0865 26.5ZM9.14591 26.5H8.65943C8.12429 26.5 7.68646 26.05 7.68646 25.5C7.68646 24.95 8.12429 24.5 8.65943 24.5H9.14591C9.68105 24.5 10.1189 24.95 10.1189 25.5C10.1189 26.05 9.68105 26.5 9.14591 26.5ZM5.15673 26.5H4.67024C4.1351 26.5 3.69727 26.05 3.69727 25.5C3.69727 24.95 4.1351 24.5 4.67024 24.5H5.15673C5.69186 24.5 6.1297 24.95 6.1297 25.5C6.1297 26.05 5.69186 26.5 5.15673 26.5Z" fill="#55DAF2"/>
<path d="M1.21622 26.5H0.972973C0.437838 26.5 0 26.05 0 25.5C0 24.95 0.437838 24.5 0.972973 24.5H1.21622C1.75135 24.5 2.18919 24.95 2.18919 25.5C2.18919 26.05 1.75135 26.5 1.21622 26.5Z" fill="#55DAF2"/>
<path d="M51.4699 50.5531C50.9348 50.5531 50.4969 50.1031 50.4969 49.5531V41.7031C50.4969 39.5531 49.6699 38.0031 48.0158 37.1531C46.7023 36.4531 45.3402 36.4531 45.3402 36.4531C44.805 36.4531 44.3672 36.0031 44.3672 35.4531C44.3672 34.9031 44.805 34.4531 45.3402 34.4531C45.3888 34.4531 47.0915 34.4531 48.8429 35.3531C50.4969 36.2031 52.4429 38.0031 52.4429 41.7531V49.6531C52.4429 50.1531 52.005 50.5531 51.4699 50.5531Z" fill="#333333"/>
<path d="M27.389 50.4C26.8539 50.4 26.416 49.95 26.416 49.4V39.75C26.416 39.2 26.8539 38.75 27.389 38.75C27.9241 38.75 28.362 39.2 28.362 39.75V49.4C28.362 49.95 27.9241 50.4 27.389 50.4Z" fill="#333333"/>
<path d="M0.972938 10.7527C0.486451 10.7527 0.0972621 10.4027 -3.52027e-05 9.95273C-0.0973325 9.40273 0.243208 8.90273 0.778343 8.80273C7.24861 7.60273 10.3621 5.50273 10.3621 5.45273C10.8 5.15273 11.4324 5.25273 11.7243 5.70273C12.0162 6.15273 11.9189 6.75273 11.481 7.10273C11.3351 7.20273 8.07564 9.50273 1.11888 10.7527C1.07024 10.7527 1.02159 10.7527 0.972938 10.7527Z" fill="#333333"/>
<path d="M10.9461 45.7514C10.7515 45.7514 10.5569 45.7014 10.411 45.5514C10.3623 45.5514 7.29744 43.4014 0.827171 42.2014C0.292036 42.1014 -0.0485044 41.6014 0.0487929 41.0514C0.14609 40.5014 0.632577 40.1514 1.16771 40.2514C8.12447 41.5014 11.3839 43.8014 11.5299 43.9014C11.9677 44.2014 12.065 44.8514 11.7731 45.3014C11.5785 45.6014 11.238 45.7514 10.9461 45.7514Z" fill="#333333"/>
</g>
<defs>
<clipPath id="clip0_364_1019">
<rect width="54" height="51" fill="white"/>
</clipPath>
</defs>
</svg>
