<svg width="27" height="26" viewBox="0 0 27 26" fill="none" xmlns="http://www.w3.org/2000/svg">
<path d="M21.8826 4.19531L4.61328 12.6673L21.8826 21.0004" stroke="#555555" stroke-width="1.5" stroke-miterlimit="10" stroke-linejoin="round"/>
<path d="M4.75 16.75C6.95914 16.75 8.75 14.9591 8.75 12.75C8.75 10.5409 6.95914 8.75 4.75 8.75C2.54086 8.75 0.75 10.5409 0.75 12.75C0.75 14.9591 2.54086 16.75 4.75 16.75Z" fill="white" stroke="#555555" stroke-width="1.5" stroke-miterlimit="10" stroke-linejoin="round"/>
<path d="M21.75 8.75C23.9591 8.75 25.75 6.95914 25.75 4.75C25.75 2.54086 23.9591 0.75 21.75 0.75C19.5409 0.75 17.75 2.54086 17.75 4.75C17.75 6.95914 19.5409 8.75 21.75 8.75Z" fill="white" stroke="#555555" stroke-width="1.5" stroke-miterlimit="10" stroke-linejoin="round"/>
<path d="M21.75 24.75C23.9591 24.75 25.75 22.9591 25.75 20.75C25.75 18.5409 23.9591 16.75 21.75 16.75C19.5409 16.75 17.75 18.5409 17.75 20.75C17.75 22.9591 19.5409 24.75 21.75 24.75Z" fill="white" stroke="#555555" stroke-width="1.5" stroke-miterlimit="10" stroke-linejoin="round"/>
</svg>
