<svg width="44" height="55" viewBox="0 0 44 55" fill="none" xmlns="http://www.w3.org/2000/svg">
<g clip-path="url(#clip0_364_1077)">
<path d="M42.9987 55.0011C42.5482 55.0011 42.0976 54.6981 41.9975 54.193C41.3968 51.4153 40.9964 48.1324 40.4958 44.6981C39.6949 38.5365 38.7438 31.5668 36.6915 25.3042C33.0874 14.2435 15.2171 1.97082 15.0669 1.86981C14.6164 1.56678 14.4662 0.910213 14.8166 0.455668C15.117 0.00112221 15.7677 -0.150393 16.2182 0.203142C16.2683 0.253647 20.9236 3.38496 25.9293 7.93042C32.737 14.092 36.9918 19.6981 38.6437 24.6476C40.7461 31.0617 41.6972 38.1324 42.4981 44.3951C42.9486 47.8294 43.3991 51.0617 43.9498 53.7385C44.0499 54.2941 43.6995 54.7991 43.1989 54.9506C43.1488 55.0011 43.0487 55.0011 42.9987 55.0011Z" fill="#333333"/>
<path d="M21.9748 55.0029C21.5743 55.0029 21.2239 54.8009 21.0738 54.3968C15.7677 42.1241 16.018 33.5382 16.2683 31.013C12.4139 29.1443 1.05102 23.4372 0.55045 23.1847C0.0498812 22.9322 -0.150346 22.3261 0.0999381 21.8211C0.350223 21.316 0.950905 21.114 1.45147 21.3665C1.60164 21.417 14.8667 28.1342 17.77 29.4473C18.1705 29.6494 18.4208 30.1039 18.3707 30.5584C18.3707 30.6595 16.919 39.6999 22.9259 53.5887C23.1261 54.0938 22.9259 54.6999 22.4253 54.9019C22.2751 54.9524 22.125 55.0029 21.9748 55.0029Z" fill="#333333"/>
<path d="M24.0271 19.2401C25.3286 17.624 25.0283 15.1997 23.4265 13.9371C21.7746 12.624 19.4219 12.927 18.1705 14.5432C18.1204 14.5937 18.1204 14.5937 18.1204 14.6442L1.00098 1.00781V7.47246L14.9668 18.5836C14.9168 18.6341 14.9168 18.6341 14.8667 18.6846C13.5653 20.3512 13.8656 22.725 15.4674 23.9876C17.0692 25.3007 19.472 24.9977 20.7234 23.3816C21.3741 22.5735 21.6244 21.5634 21.5243 20.6038C22.4754 20.5028 23.3764 20.0482 24.0271 19.2401Z" fill="#55DAF2"/>
<path d="M24.878 29.0942C22.8758 29.5487 21.5743 31.569 22.0248 33.5892C22.4753 35.6094 24.4776 36.9225 26.4799 36.4679C26.5299 36.4679 26.58 36.4679 26.58 36.4174L30.3342 53.9427H35.7404L31.4856 35.3568C31.5356 35.3568 31.5857 35.3568 31.5857 35.3568C33.5879 34.9023 34.8894 32.8821 34.4389 30.8619C34.0385 28.7912 32.0362 27.5285 30.0339 27.9831C29.0328 28.1851 28.2319 28.7912 27.6812 29.5993C26.8803 29.0942 25.8792 28.8417 24.878 29.0942Z" fill="#55DAF2"/>
<path d="M20.874 26.1165C20.874 26.1165 23.1266 25.6114 23.3769 22.4801C23.3769 22.4801 26.8808 21.8741 26.7807 18.8438C26.7807 18.8438 31.2859 20.4599 32.1368 26.167C32.1368 26.167 28.5327 26.066 27.6317 27.6821C27.6317 27.6821 27.3814 25.2579 25.1289 23.7427C25.1289 23.7427 26.7307 26.8741 25.0287 27.8842C23.3268 28.8943 20.874 26.1165 20.874 26.1165Z" fill="#55DAF2"/>
</g>
<defs>
<clipPath id="clip0_364_1077">
<rect width="44" height="55" fill="white"/>
</clipPath>
</defs>
</svg>
