<svg width="70" height="63" viewBox="0 0 70 63" fill="none" xmlns="http://www.w3.org/2000/svg">
<g clip-path="url(#clip0_364_1131)">
<path d="M24.2326 7.95312C24.2326 7.95312 28.6697 22.9787 27.4507 28.1303C26.2318 33.2819 17.3087 50.6925 17.3087 50.6925C17.3087 50.6925 12.7253 54.1746 10.8237 54.6516C8.43449 55.224 7.60558 57.7998 9.9948 60.6141C12.4328 63.3807 16.8699 61.425 18.479 60.6141C18.479 60.6141 27.402 61.8066 33.8383 53.5068C40.4208 45.1593 47.2959 46.7334 53.3421 41.6294C59.4371 36.4778 53.7322 26.9855 50.514 23.7896C47.2959 20.6414 48.0761 7.95312 48.0761 7.95312" stroke="#333333" stroke-width="2.5" stroke-miterlimit="10" stroke-linecap="round" stroke-linejoin="round"/>
<path d="M17.9913 60.1342C18.1864 59.9911 18.4301 59.7526 18.5764 59.5141C18.7715 59.2756 18.9665 58.9894 19.1128 58.7032C19.4053 58.1308 19.6979 57.5107 19.8442 56.8906C19.9417 57.5584 19.8929 58.2739 19.7954 58.9417C19.7467 59.2756 19.6491 59.6572 19.5516 59.9911C19.4541 60.325 19.3078 60.6589 19.1128 61.0405L19.064 61.0882C18.869 61.4221 18.3814 61.5652 18.0401 61.3744C17.6988 61.1836 17.5525 60.7066 17.7475 60.3727C17.845 60.2773 17.8938 60.2296 17.9913 60.1342Z" fill="#3E3A39"/>
</g>
<defs>
<clipPath id="clip0_364_1131">
<rect width="70" height="63" fill="white"/>
</clipPath>
</defs>
</svg>
