<svg width="61" height="61" viewBox="0 0 61 61" fill="none" xmlns="http://www.w3.org/2000/svg">
<g clip-path="url(#clip0_364_1141)">
<path d="M44.0279 50.4C38.2024 50.4 33.3291 48.4938 29.9122 44.8495C25.9352 40.5884 22.3503 39.8596 18.8774 39.1307C15.5725 38.4579 12.2116 37.7291 8.96275 34.0848C3.47331 27.9175 7.50637 22.8155 10.1391 19.4515C10.8672 18.4984 11.5954 17.6013 11.9315 16.8725C13.724 13.2842 18.6533 0.837529 18.7093 0.725397C18.9334 0.164735 19.6055 -0.115596 20.1657 0.108669C20.7258 0.332933 21.0059 1.00573 20.7818 1.56639C20.5578 2.07098 15.7965 14.2373 13.9481 17.8816C13.4999 18.8348 12.7157 19.7879 11.9315 20.8532C9.24282 24.3293 6.44209 27.8614 10.6432 32.627C13.3879 35.7107 16.1326 36.2714 19.3255 36.9441C22.9664 37.673 27.0555 38.5701 31.5367 43.3357C34.6735 46.6436 39.0426 48.3256 44.5321 48.2134C48.7332 48.1574 52.038 46.98 52.0941 46.98C52.3741 46.8679 52.6542 46.9239 52.8783 46.98C54.2786 47.5967 57.5275 48.3816 58.3117 47.1482C58.8718 46.3072 58.9279 45.4662 58.5358 44.6813C57.9756 43.5039 56.5192 42.719 54.7828 42.6068C50.7497 42.3265 46.4926 39.0186 40.1069 31.2254C34.1133 23.8247 37.5302 18.4423 37.9223 17.8256L44.9802 6.61234C45.3163 6.10775 45.9885 5.93955 46.5486 6.27595C47.0527 6.61234 47.2208 7.28514 46.8847 7.8458L39.7708 19.003L39.7148 19.059C39.6028 19.2272 36.69 23.4883 41.7874 29.7116C47.6689 36.8881 51.5339 40.0839 54.8388 40.3081C57.3594 40.4763 59.544 41.7658 60.4403 43.616C61.2245 45.1298 61.1124 46.8118 60.1602 48.3256C58.3677 51.1289 53.8305 49.7272 52.3741 49.1666C51.3099 49.503 48.3411 50.2879 44.6441 50.4C44.42 50.4 44.252 50.4 44.0279 50.4Z" fill="#333333"/>
<path d="M19.9974 25.7845C19.5493 25.7845 19.1572 25.5042 18.9331 25.1117C16.8606 20.0658 19.0451 17.4867 19.1011 17.3746C19.4932 16.9261 20.2214 16.87 20.6696 17.2625C21.1177 17.6549 21.1737 18.3838 20.7816 18.8323C20.7256 18.9444 19.4932 20.6264 20.9496 24.2147C21.1737 24.7753 20.8936 25.4481 20.3335 25.6724C20.2774 25.7845 20.1654 25.7845 19.9974 25.7845Z" fill="#333333"/>
<path d="M17.6444 43L16.132 50.7932L20.6132 50.4007L17.3083 59.8759L16.3561 54.3814L12.043 54.6057L17.6444 43Z" fill="#55DAF2"/>
<path d="M17.3085 60.9992C17.2525 60.9992 17.2525 60.9992 17.1964 60.9992C16.6923 60.9431 16.3002 60.6067 16.1882 60.1021L15.404 55.5607L12.0991 55.785C11.707 55.8411 11.3149 55.6168 11.0908 55.2804C10.8668 54.944 10.8668 54.5515 11.0348 54.1591L16.6923 42.5534C16.9164 42.0488 17.5325 41.8245 18.0367 41.9927C18.5968 42.1609 18.8769 42.7216 18.7648 43.2822L17.5325 49.5617L20.5573 49.3374C20.9494 49.2813 21.2855 49.4495 21.5096 49.7859C21.7336 50.0663 21.7896 50.4587 21.6776 50.8512L18.3727 60.2703C18.2047 60.6628 17.7566 60.9992 17.3085 60.9992ZM16.3562 53.262C16.9164 53.262 17.3645 53.6545 17.4765 54.1591L17.7006 55.4486L19.0449 51.6361L16.2442 51.8604C15.9081 51.8604 15.572 51.7482 15.2919 51.4679C15.1799 51.2997 15.0679 51.1315 15.0119 50.9633L13.8356 53.3181L16.2442 53.262C16.3002 53.262 16.3002 53.262 16.3562 53.262Z" fill="#55DAF2"/>
<path d="M15.5729 30.5L8.45902 38.1811L13.7804 40.9844L3.47371 49.3382L6.16242 42.4421L1.12109 39.6949L15.5729 30.5Z" fill="#55DAF2"/>
<path d="M3.47326 50.459C3.2492 50.459 3.02514 50.403 2.80108 50.2348C2.40898 49.9544 2.24094 49.3938 2.40898 48.9452L4.7616 42.9462L0.560498 40.7035C0.224409 40.5353 0.000350625 40.1429 -0.0556641 39.7504C-0.0556641 39.3579 0.11238 38.9655 0.448468 38.7412L14.9003 29.5463C15.4044 29.266 16.0206 29.3221 16.3566 29.7706C16.6927 30.2191 16.6927 30.8359 16.3006 31.2283L10.139 37.8441L14.1721 39.9186C14.5082 40.0868 14.7322 40.4232 14.7882 40.8157C14.8442 41.2081 14.6762 41.5445 14.3961 41.8248L4.14544 50.1787C3.97739 50.3469 3.69732 50.459 3.47326 50.459ZM3.36123 39.6383L6.72211 41.4324C7.22625 41.7127 7.4503 42.3294 7.22625 42.834L6.04994 45.8055L11.7634 41.152L7.95444 39.1897C7.61835 39.0215 7.4503 38.7412 7.33828 38.4048C7.28226 38.0684 7.39429 37.732 7.61835 37.4517L8.79466 36.1622L3.36123 39.6383Z" fill="#55DAF2"/>
</g>
<defs>
<clipPath id="clip0_364_1141">
<rect width="61" height="61" fill="white"/>
</clipPath>
</defs>
</svg>
