<svg width="74" height="35" viewBox="0 0 74 35" fill="none" xmlns="http://www.w3.org/2000/svg">
<g clip-path="url(#clip0_364_997)">
<path d="M22.892 11.7422C20.416 15.1826 14.9034 17.6137 8.54984 17.6137C7.38191 17.6137 6.21399 17.522 5.09277 17.3844C9.90464 12.9807 18.8276 12.522 22.7519 11.7881C22.7986 11.7422 22.8453 11.7422 22.892 11.7422Z" fill="#55DAF2"/>
<path d="M68.8149 17.3375C67.6937 17.4751 66.5724 17.5669 65.3578 17.5669C59.0043 17.5669 53.4916 15.1816 51.0156 11.6953C51.0623 11.6953 51.1091 11.6953 51.1558 11.7412C55.1267 12.4751 64.0497 12.9797 68.8149 17.3375Z" fill="#55DAF2"/>
<path d="M0.79452 34.9971C0.701086 34.9971 0.560934 34.9971 0.4675 34.9512C0.0470452 34.7677 -0.139823 34.309 0.0470452 33.8962C0.327348 33.2081 0.841237 28.0705 1.12154 23.5292C1.40184 20.8228 2.56977 18.5751 4.53189 16.7861C8.68972 12.9787 15.6039 12.0154 20.1821 11.3732C21.1165 11.2356 21.9107 11.1439 22.5647 11.0062H22.6114H22.6582C26.3955 10.2264 27.3766 3.39157 27.47 0.822759C27.47 0.364043 27.8438 -0.00292951 28.3109 0.0429421C28.7781 0.0429421 29.1051 0.409914 29.1051 0.86863C29.1051 1.28147 28.7314 11.3732 23.0319 12.5659C22.9852 12.5659 22.8917 12.6117 22.845 12.6117C22.191 12.7494 21.3968 12.8411 20.4157 12.9787C16.0243 13.5751 9.4372 14.5384 5.60639 17.9787C3.97129 19.4925 3.03694 21.3273 2.80336 23.6209C2.70992 25.1806 2.14932 33.1622 1.58871 34.4925C1.44856 34.8136 1.12154 34.9971 0.79452 34.9971Z" fill="#333333"/>
<path d="M34.4777 20.3187C34.2441 20.3187 34.0105 20.227 33.8704 20.0435C33.8704 20.0435 33.0295 19.1261 32.1886 18.6215C30.9272 17.8417 23.8729 17.5664 19.7151 17.5664C19.2479 17.5664 18.9209 17.1995 18.9209 16.7408C18.9209 16.282 19.2946 15.9609 19.7618 15.9609C21.6305 15.9609 31.0206 16.0527 33.0762 17.2453C34.1507 17.8875 35.085 18.8967 35.1318 18.9426C35.4121 19.2637 35.4121 19.7683 35.085 20.0894C34.8982 20.227 34.7113 20.3187 34.4777 20.3187Z" fill="#333333"/>
<path d="M39.4301 20.3197C39.2432 20.3197 39.0563 20.2739 38.8695 20.1363C38.5425 19.861 38.4957 19.3564 38.8228 18.9895C38.8695 18.9436 39.8038 17.8885 40.8783 17.2922C42.9339 16.0537 52.324 16.0078 54.1927 16.0078C54.6599 16.0078 54.9869 16.3748 55.0336 16.7876C55.0336 17.2463 54.6599 17.6133 54.2394 17.6133C50.0816 17.6133 43.0273 17.8885 41.7659 18.6684C40.925 19.1729 40.0841 20.0904 40.0841 20.0904C39.8973 20.228 39.6637 20.3197 39.4301 20.3197Z" fill="#333333"/>
<path d="M4.11142 14.5872L3.27051 13.7615C3.59753 13.4404 3.97127 13.1193 4.345 12.7982L5.13919 13.6697C4.76546 13.945 4.43844 14.2661 4.11142 14.5872ZM6.54071 12.4771L5.83995 11.5596C6.35384 11.1927 6.86773 10.8257 7.38162 10.4587L8.03566 11.422C7.52177 11.789 7.00788 12.1101 6.54071 12.4771ZM9.57733 10.5046L8.97 9.49541C9.53061 9.17431 10.0912 8.89908 10.6518 8.62385L11.1657 9.63303C10.6051 9.90826 10.0912 10.1835 9.57733 10.5046ZM12.8475 8.89908L12.3804 7.84404C12.941 7.61468 13.5483 7.38532 14.1556 7.15596L14.5761 8.21101C13.9687 8.44037 13.4081 8.66972 12.8475 8.89908ZM16.3046 7.66055L15.9776 6.55963C16.5849 6.37615 17.1922 6.19266 17.7995 6.05505L18.0799 7.15596C17.4725 7.29358 16.8652 7.47706 16.3046 7.66055ZM19.8551 6.78899L19.6215 5.6422C20.2288 5.50459 20.8829 5.41284 21.4902 5.3211L21.6771 6.46789C21.0698 6.55963 20.4624 6.65138 19.8551 6.78899ZM23.499 6.23853L23.4056 5.09174C24.5735 5 25.2743 5 25.321 5V6.14679C25.321 6.14679 24.6203 6.14679 23.499 6.23853Z" fill="#55DAF2"/>
<path d="M69.8424 14.5872C69.5154 14.2661 69.1884 13.945 68.8146 13.6697L69.6088 12.7982C69.9826 13.1193 70.3096 13.4404 70.6833 13.7615L69.8424 14.5872ZM67.4131 12.4771C66.9459 12.1101 66.4321 11.7431 65.9182 11.422L66.5722 10.4587C67.0861 10.8257 67.6 11.1927 68.1139 11.5596L67.4131 12.4771ZM64.3765 10.5046C63.8626 10.2294 63.302 9.90826 62.7414 9.63303L63.2553 8.62385C63.8159 8.89908 64.3765 9.22018 64.9371 9.49541L64.3765 10.5046ZM61.1063 8.89908C60.5457 8.66972 59.9851 8.44037 59.3778 8.25688L59.7982 7.20183C60.4055 7.43119 61.0129 7.66055 61.5735 7.88991L61.1063 8.89908ZM57.6492 7.66055C57.0886 7.47706 56.4813 7.33945 55.874 7.15596L56.1543 6.05505C56.7616 6.19266 57.3689 6.37615 57.9762 6.55963L57.6492 7.66055ZM54.0987 6.78899C53.4914 6.65138 52.8841 6.55963 52.2768 6.46789L52.4636 5.3211C53.0709 5.41284 53.725 5.50459 54.3323 5.6422L54.0987 6.78899ZM50.4548 6.23853C49.3336 6.14679 48.6795 6.14679 48.6328 6.14679V5C48.7262 5 49.427 5 50.5482 5.09174L50.4548 6.23853Z" fill="#55DAF2"/>
<path d="M73.206 35C72.8789 35 72.5986 34.8165 72.4585 34.4954C71.8979 33.211 71.3373 25.1835 71.2438 23.6239C71.0102 21.3761 70.0292 19.4954 68.3474 17.9817C64.5633 14.4954 57.9294 13.578 53.538 12.9817C52.6037 12.844 51.7628 12.7523 51.1087 12.6147C51.062 12.6147 51.0153 12.6147 50.9219 12.5688C45.2224 11.2844 44.8486 1.23853 44.8486 0.825688C44.8486 0.366972 45.1757 0 45.6428 0C46.0633 0 46.4837 0.321101 46.4837 0.779817C46.5772 3.34862 47.5582 10.1835 51.2956 10.9633H51.3423H51.389C52.0431 11.1009 52.8373 11.1927 53.7716 11.3303C58.3499 11.9725 65.264 12.9358 69.4219 16.7431C71.384 18.5321 72.5519 20.7798 72.8322 23.4404C73.1592 28.0275 73.6264 33.1651 73.9534 33.8532C74.1403 34.2661 73.9067 34.7248 73.533 34.9083C73.3928 34.9541 73.2994 35 73.206 35Z" fill="#333333"/>
</g>
<defs>
<clipPath id="clip0_364_997">
<rect width="74" height="35" fill="white"/>
</clipPath>
</defs>
</svg>
