<svg width="25" height="26" viewBox="0 0 25 26" fill="none" xmlns="http://www.w3.org/2000/svg">
<path d="M12.1346 24.7404C6.65526 24.7404 0.773438 23.564 0.773438 20.9327C0.773438 18.3014 6.65526 17.125 12.1346 17.125C17.614 17.125 23.4958 18.3323 23.4958 20.9327C23.4958 23.564 17.614 24.7404 12.1346 24.7404Z" fill="#248CFF"/>
<path d="M12.1351 17.8682C17.986 17.8682 22.7224 19.2303 22.7224 20.9019C22.7224 22.5736 17.986 23.9357 12.1351 23.9357C6.28426 23.9357 1.54785 22.6046 1.54785 20.9329C1.54785 19.2303 6.28426 17.8682 12.1351 17.8682ZM12.1351 16.3203C9.16326 16.3203 6.34617 16.6608 4.21014 17.28C1.42402 18.0849 0 19.3231 0 20.9329C0 22.5427 1.42402 23.7809 4.21014 24.5858C6.34617 25.205 9.16326 25.5455 12.1351 25.5455C15.107 25.5455 17.9241 25.205 20.0601 24.5858C22.8772 23.7809 24.2702 22.5427 24.2702 20.9329C24.2702 19.3231 22.8462 18.0849 20.0601 17.28C17.9241 16.6608 15.107 16.3203 12.1351 16.3203Z" fill="white"/>
<path d="M19.3478 7.87147C19.3478 3.75419 15.9116 0.441799 11.7324 0.658497C7.95566 0.844239 4.92188 4.06376 4.92188 7.87147C4.92188 9.85271 5.72676 11.6173 6.99599 12.9174C8.48192 14.4034 9.78212 16.0751 10.6799 17.9944L12.1039 20.9353L13.5279 17.9944C14.4566 16.106 15.7568 14.4343 17.2427 12.9174C18.5739 11.6173 19.3478 9.85271 19.3478 7.87147Z" fill="#248CFF" stroke="white" stroke-width="1.3" stroke-miterlimit="10" stroke-linejoin="bevel"/>
<path d="M13.2253 10.5086C14.6785 9.90664 15.3686 8.24058 14.7666 6.78735C14.1647 5.33412 12.4986 4.64403 11.0454 5.24599C9.59214 5.84795 8.90205 7.51401 9.50401 8.96724C10.106 10.4205 11.772 11.1106 13.2253 10.5086Z" fill="white" stroke="white" stroke-width="1.3" stroke-miterlimit="10"/>
</svg>
