<svg width="78" height="53" viewBox="0 0 78 53" fill="none" xmlns="http://www.w3.org/2000/svg">
<path d="M43.1926 1.10156H33.9629V8.39734H43.1926V1.10156Z" fill="#F4F9FF"/>
<path d="M43.1925 9.44159H33.9628C33.3596 9.44159 32.877 8.95112 32.877 8.33803V1.10356C32.877 0.490472 33.3596 0 33.9628 0H43.1925C43.7957 0 44.2783 0.490472 44.2783 1.10356V8.39934C44.2783 8.95112 43.7957 9.44159 43.1925 9.44159ZM35.0486 7.29577H42.167V2.14582H35.0486V7.29577Z" fill="#333333"/>
<path d="M27.9297 12.1328H49.345L38.6675 33.407L27.9297 12.1328Z" fill="#F4F9FF"/>
<path d="M38.668 34.4525C38.2457 34.4525 37.8837 34.2073 37.7028 33.8394L26.9649 12.6265C26.784 12.3199 26.784 11.8908 27.0253 11.5842C27.2062 11.2777 27.5682 11.0938 27.9301 11.0938H49.3455C49.7074 11.0938 50.0693 11.2777 50.2503 11.5842C50.4313 11.8908 50.4313 12.3199 50.3106 12.6265L39.5728 33.9007C39.3919 34.2073 39.0299 34.4525 38.668 34.4525ZM29.6796 13.2396L38.668 31.0192L47.6564 13.2396H29.6796Z" fill="#333333"/>
<path d="M42.1062 18.8165H35.1689C34.5656 18.8165 34.083 18.326 34.083 17.7129C34.083 17.0998 34.5656 16.6094 35.1689 16.6094H42.1665C42.7698 16.6094 43.2524 17.0998 43.2524 17.7129C43.1921 18.326 42.7095 18.8165 42.1062 18.8165Z" fill="#333333"/>
<path d="M41.0805 24.4571H36.4355C35.8322 24.4571 35.3496 23.9667 35.3496 23.3536C35.3496 22.7405 35.8322 22.25 36.4355 22.25H41.0805C41.6837 22.25 42.1663 22.7405 42.1663 23.3536C42.106 23.9667 41.6837 24.4571 41.0805 24.4571Z" fill="#333333"/>
<path d="M37.8846 35.5642C36.2558 33.0505 33.1189 32.0696 30.5853 30.7208C28.293 29.4946 25.699 26.9809 24.8544 24.4673C24.7941 24.2833 24.7338 24.0994 24.7338 23.9155C24.3115 21.7697 24.7941 19.256 25.8196 17.3554C27.0261 15.0257 30.344 14.2287 31.1886 11.6537C32.3347 8.22038 27.5087 4.41922 24.5528 3.37696C20.0888 1.66031 14.7199 2.64125 10.8591 5.15492C9.35096 6.13587 8.14447 7.23943 7.17927 8.4043L5.42985 11.4698C4.16303 14.6578 4.28368 18.2751 5.42985 22.2601C6.87765 27.4714 11.764 29.8012 14.9612 33.8476C16.8916 36.2999 17.8568 39.3041 19.7872 41.7564C22.4415 45.0671 26.1213 46.5998 29.9217 46.232C32.2744 45.9867 34.989 44.8219 36.3765 43.0439C37.8243 41.2046 39.2721 37.71 37.8846 35.5642Z" fill="#55DAF2"/>
<path d="M28.7751 47.3319C25.035 47.3319 21.4758 45.6152 19.0025 42.4272C17.977 41.1397 17.1928 39.6683 16.4689 38.3195C15.6846 36.9707 15.0211 35.6832 14.1162 34.5183C13.0303 33.1695 11.7635 32.0046 10.4967 30.8398C8.02338 28.5713 5.42941 26.1803 4.40389 22.5017C3.13707 18.1488 3.19739 14.2863 4.46422 11.0369C4.70551 10.4852 5.30876 10.2399 5.85169 10.4239C6.39461 10.6691 6.63591 11.2822 6.45493 11.834C5.30876 14.5929 5.30876 18.0262 6.45493 21.8886C7.35981 24.9541 9.59183 27.0386 11.9445 29.1844C13.2716 30.4106 14.6591 31.6368 15.8053 33.1082C16.8308 34.3957 17.615 35.8671 18.3389 37.2159C19.0628 38.5647 19.7264 39.8522 20.6313 41.0171C22.9839 43.9599 26.3018 45.4313 29.861 45.0635C32.1533 44.8182 34.506 43.7147 35.5918 42.2432C36.7983 40.7105 38.0651 37.6451 37.0396 36.051C35.9538 34.3344 34.0234 33.4147 31.9723 32.4338C31.3691 32.1272 30.7658 31.8207 30.1626 31.5142C27.8099 30.288 24.854 27.5904 23.9491 24.5862C23.8888 24.341 23.8285 24.1571 23.7682 23.9118C23.2856 21.6434 23.7078 18.8845 24.9143 16.6161C25.5779 15.3286 26.7241 14.4702 27.8099 13.6732C28.8958 12.8762 29.861 12.1405 30.2229 11.0369C31.0675 8.40065 26.7844 4.96735 24.2508 4.10902C20.3296 2.69891 15.3227 3.43462 11.5222 5.94829C10.1347 6.86793 8.98858 7.84887 8.14403 9.01374C7.78208 9.50422 7.11851 9.56553 6.63591 9.19767C6.15331 8.82982 6.09299 8.15542 6.45493 7.66495C7.48046 6.37746 8.8076 5.21258 10.376 4.17033C14.7194 1.35011 20.4503 0.553097 24.9747 2.14713C28.3528 3.312 33.6614 7.60364 32.2136 11.7727C31.6707 13.4893 30.2832 14.5316 29.0164 15.4512C28.0512 16.1256 27.2067 16.8 26.7241 17.6583C25.7589 19.4976 25.3969 21.7047 25.7589 23.544C25.8192 23.7279 25.8192 23.8505 25.8795 23.9731C26.6034 26.2416 29.0767 28.5713 31.0675 29.6136C31.6104 29.9201 32.2136 30.1654 32.8169 30.4719C35.0489 31.5142 37.3412 32.6177 38.789 34.8248C40.5385 37.5224 38.8494 41.5688 37.2809 43.5307C35.4712 45.7992 32.274 46.9027 30.1023 47.148C29.6197 47.3319 29.1974 47.3319 28.7751 47.3319Z" fill="#333333"/>
<path d="M32.6962 37.0321C32.5152 35.3768 30.4642 34.2732 28.0512 34.5184C25.6985 34.7637 23.9491 36.2964 24.1301 37.8904C24.311 39.5458 26.3621 40.6493 28.7751 40.4041C31.1277 40.1589 32.9375 38.6261 32.6962 37.0321Z" fill="#F4F9FF"/>
<path d="M28.1113 41.5068C25.457 41.5068 23.3456 40.0354 23.1043 38.0122C22.9837 37.1539 23.2853 36.2342 23.8886 35.4985C24.7934 34.395 26.3016 33.5979 27.9907 33.414C31.0069 33.1075 33.5405 34.6402 33.7818 36.8473C33.9025 37.7057 33.6009 38.6253 32.9976 39.361C32.0927 40.4646 30.5846 41.2616 28.8955 41.4455C28.6542 41.5068 28.3526 41.5068 28.1113 41.5068ZM28.7749 35.5598C28.5939 35.5598 28.4129 35.5598 28.232 35.5598C27.0858 35.6825 26.0603 36.1729 25.5777 36.8473C25.3364 37.1539 25.2157 37.4604 25.276 37.767C25.3967 38.7479 27.0255 39.4836 28.7145 39.2997C29.8607 39.1771 30.8862 38.6866 31.3688 38.0122C31.6101 37.7057 31.7308 37.3991 31.6705 37.0926C31.5498 36.2342 30.283 35.5598 28.7749 35.5598Z" fill="#333333"/>
<path d="M27.9303 15.2646C27.5081 15.2646 27.0858 15.0193 26.9651 14.5902C25.7586 11.4021 23.7076 9.3789 20.8723 8.7045C17.3735 7.84618 13.754 9.31759 13.2111 9.80807C12.8491 10.2372 12.2459 10.3598 11.7633 9.99199C11.2807 9.62414 11.16 8.94974 11.522 8.52058C12.3665 7.3557 16.4686 5.9456 20.2691 6.43607C23.1043 6.80392 26.9651 8.39796 28.9558 13.8545C29.1368 14.4062 28.8955 15.0193 28.3526 15.2646C28.1716 15.2646 28.051 15.2646 27.9303 15.2646Z" fill="#333333"/>
<path d="M66.2977 5.15439C62.4369 2.64072 57.1284 1.65978 52.6643 3.1925C49.7084 4.23476 44.9427 8.03592 46.0286 11.4692C46.8731 14.0442 50.191 14.8412 51.3975 17.171C52.4833 19.1942 52.9659 21.7078 52.4833 23.8536C52.423 24.0376 52.423 24.2215 52.3627 24.4054C51.5785 26.9191 48.9242 29.4941 46.6318 30.6589C44.0379 32.0077 40.9613 32.9887 39.3325 35.5024C37.9451 37.6482 39.3928 41.1428 40.8406 42.9821C42.2281 44.76 44.9427 45.9249 47.2954 46.1701C51.0959 46.538 54.7757 45.0666 57.43 41.6946C59.3604 39.2422 60.3256 36.2381 62.256 33.7857C65.1515 30.1685 69.3743 27.8387 71.2444 23.6084L72.3905 19.5007C72.5715 18.5198 72.6318 17.6001 72.6318 16.6805C72.7525 12.1436 70.8824 8.15853 66.2977 5.15439Z" fill="#55DAF2"/>
<path d="M48.4412 47.3331C48.0189 47.3331 47.5966 47.3331 47.1743 47.2718C45.0026 47.0265 41.8054 45.9843 39.9957 43.6545C38.4272 41.6313 36.6778 37.6463 38.4876 34.9487C39.9354 32.7415 42.2277 31.638 44.4597 30.5957C45.063 30.2892 45.6662 30.0439 46.2091 29.7374C48.1999 28.6951 50.6732 26.3654 51.3971 24.097C51.4574 23.9743 51.4574 23.7904 51.5177 23.6678C51.8797 21.8898 51.5177 19.6214 50.5525 17.7821C50.0699 16.9238 49.1651 16.2494 48.2602 15.5137C47.0537 14.5941 45.6662 13.5518 45.063 11.8352C43.6755 7.60483 48.9841 3.3745 52.3019 2.20963C56.8263 0.615597 62.5572 1.41261 66.9006 4.23283C71.4852 7.23697 73.8379 11.4673 73.7173 16.7399C73.7173 17.7208 73.5966 18.7018 73.4156 19.744C73.295 20.3571 72.7521 20.725 72.2091 20.6023C71.6059 20.4797 71.2439 19.9279 71.3646 19.3762C71.5456 18.4565 71.6059 17.5982 71.6059 16.7399C71.6662 12.203 69.7358 8.70839 65.7544 6.0721C61.9539 3.55843 56.947 2.88403 53.0258 4.23283C50.4922 5.15247 46.2091 8.52446 47.0537 11.1608C47.4156 12.203 48.4412 13 49.4667 13.797C50.5525 14.5941 51.6987 15.4524 52.3623 16.7399C53.5688 19.0083 53.991 21.7672 53.5084 24.0356C53.4481 24.2809 53.3878 24.4648 53.3275 24.71C52.3623 27.6529 49.4064 30.3505 47.114 31.638C46.5108 31.9445 45.9075 32.2511 45.3043 32.5576C43.2532 33.5386 41.3228 34.4582 40.237 36.1748C39.1511 37.8302 40.4783 40.8343 41.6848 42.3671C42.831 43.7772 45.1233 44.942 47.4156 45.1873C50.9145 45.5551 54.2927 44.0837 56.6453 41.1409C57.5502 39.976 58.2138 38.6885 58.9377 37.3397C59.6616 35.9296 60.4458 34.5195 61.4713 33.232C62.6175 31.7606 64.005 30.4731 65.3321 29.3082C67.3832 27.469 69.2532 25.691 70.3391 23.2999C70.5804 22.7482 71.1836 22.5029 71.7265 22.7482C72.2695 22.9934 72.5108 23.6065 72.2695 24.1583C71.0026 26.9785 68.831 28.9404 66.7799 30.841C65.5131 32.0058 64.1859 33.1707 63.1604 34.5195C62.2555 35.6844 61.5317 36.9719 60.8078 38.3207C60.0839 39.7308 59.2996 41.1409 58.2741 42.4284C55.7405 45.6164 52.1813 47.3331 48.4412 47.3331Z" fill="#333333"/>
<path d="M44.4592 37.0321C44.6401 35.3768 46.6912 34.2732 49.1042 34.5184C51.4568 34.7637 53.2063 36.2964 53.0253 37.8904C52.8443 39.5458 50.7933 40.6493 48.3803 40.4041C46.0276 40.1589 44.2782 38.6261 44.4592 37.0321Z" fill="#F4F9FF"/>
<path d="M49.044 41.5068C48.8027 41.5068 48.5614 41.5068 48.3201 41.4455C46.631 41.2616 45.0626 40.5259 44.218 39.361C43.6148 38.564 43.3735 37.7057 43.4338 36.8473C43.6751 34.6402 46.2087 33.1075 49.225 33.414C50.9141 33.5979 52.4825 34.3337 53.3271 35.4985C53.9303 36.2955 54.1716 37.1539 54.1113 38.0122C53.87 40.0354 51.7586 41.5068 49.044 41.5068ZM48.4408 35.5598C46.9326 35.5598 45.6055 36.2955 45.5452 37.1539C45.4848 37.4604 45.6055 37.767 45.8468 38.0735C46.3897 38.7479 47.4152 39.2384 48.5011 39.361C50.2505 39.5449 51.8793 38.7479 51.9396 37.8283C51.9999 37.5217 51.8793 37.2152 51.638 36.9086C51.095 36.2342 50.0695 35.7438 48.9837 35.6211C48.8027 35.5598 48.6217 35.5598 48.4408 35.5598Z" fill="#333333"/>
<path d="M49.2856 15.2712C49.165 15.2712 49.0443 15.2712 48.9237 15.2099C48.3807 15.026 48.0791 14.4129 48.3204 13.7998C50.3111 8.40458 54.1719 6.74924 57.0072 6.38138C60.8077 5.89091 64.9097 7.30102 65.7543 8.46589C66.1162 8.95636 65.9956 9.63076 65.513 9.93731C65.0304 10.2439 64.4271 10.1825 64.0652 9.75338C63.5223 9.26291 59.9028 7.8528 56.4039 8.64982C53.5687 9.32422 51.5176 11.2861 50.3111 14.5355C50.0698 15.026 49.7079 15.2712 49.2856 15.2712Z" fill="#333333"/>
<path d="M15.4432 35.5611C15.4432 32.1891 13.5129 29.8594 11.1602 29.8594H5.91192C3.55926 29.8594 1.08594 30.9629 1.08594 35.5611C1.08594 39.6075 3.61958 39.1783 4.58478 42.4277C5.42932 45.1866 5.18803 51.011 5.18803 51.011H11.8238C11.8238 51.011 11.7031 45.5545 12.427 42.9182C13.4525 39.6688 15.4432 38.3813 15.4432 35.5611Z" fill="#F4F9FF"/>
<path d="M5.18794 52.1177C4.58469 52.1177 4.10209 51.566 4.16241 51.0142C4.16241 50.9529 4.34339 45.3124 3.55916 42.7375C3.19722 41.6339 2.65429 41.0821 2.05104 40.4077C1.08585 39.4268 0 38.3232 0 35.5643C0 31.2727 2.17169 28.8203 5.91183 28.8203H11.1601C14.2367 28.8203 16.529 31.7018 16.529 35.5643C16.529 37.4649 15.7448 38.8137 14.9606 40.1012C14.4176 41.0208 13.8747 41.9404 13.5128 43.2279C12.7889 45.6803 12.9095 50.9529 12.9095 51.0142C12.9095 51.6273 12.4872 52.1177 11.884 52.1177C11.2807 52.1177 10.7981 51.6886 10.7981 51.0755C10.7981 50.8303 10.6775 45.4351 11.4617 42.6148C11.884 41.0821 12.5476 39.9786 13.1508 38.9976C13.8747 37.8327 14.4176 36.9131 14.4176 35.5643C14.4176 32.928 13.0302 30.9661 11.1601 30.9661H5.91183C3.31787 30.9661 2.11137 32.4375 2.11137 35.5643C2.11137 37.4649 2.71462 38.078 3.55916 38.875C4.22274 39.5494 5.12761 40.469 5.61021 42.0631C6.51508 44.9446 6.27378 50.7689 6.27378 51.0142C6.21346 51.6273 5.79118 52.1177 5.18794 52.1177Z" fill="#333333"/>
<path d="M76.9745 35.5611C76.9745 32.1891 75.0441 29.8594 72.6914 29.8594H67.4432C65.0905 29.8594 62.6172 30.9629 62.6172 35.5611C62.6172 39.6075 65.1508 39.1783 66.116 42.4277C66.9606 45.1866 66.7193 51.011 66.7193 51.011H73.355C73.355 51.011 73.2344 45.5545 73.9583 42.9182C74.9234 39.6688 76.9745 38.3813 76.9745 35.5611Z" fill="#F4F9FF"/>
<path d="M73.3549 52.1166C72.812 52.1166 72.3294 51.6261 72.3294 51.0743C72.3294 50.8291 72.2087 45.4339 72.993 42.6137C73.4152 41.0809 74.0788 39.9774 74.6821 38.9964C75.406 37.8316 75.9489 36.9119 75.9489 35.5631C75.9489 32.9268 74.5614 30.9649 72.6913 30.9649H67.4431C64.8491 30.9649 63.6426 32.4364 63.6426 35.5631C63.6426 37.4637 64.2459 38.0768 65.0904 38.8738C65.754 39.5482 66.6589 40.4678 67.1415 42.0619C68.0463 44.9434 67.805 50.7678 67.805 51.013C67.805 51.6261 67.3224 52.0552 66.7192 52.0552C66.1159 52.0552 65.6937 51.5648 65.6937 50.9517C65.6937 50.8904 65.8746 45.2499 65.0904 42.675C64.7285 41.5714 64.1855 41.0196 63.5823 40.3452C62.6171 39.3643 61.5312 38.2607 61.5312 35.5018C61.5312 31.2102 63.7029 28.7578 67.4431 28.7578H72.6913C75.7679 28.7578 78.0602 31.6393 78.0602 35.5018C78.0602 37.4024 77.276 38.7512 76.4918 40.0387C75.9489 40.9583 75.406 41.8779 75.044 43.1654C74.3201 45.6178 74.4408 50.8904 74.4408 50.9517C74.4408 51.5648 73.9582 52.0552 73.3549 52.1166Z" fill="#333333"/>
</svg>
