<svg width="24" height="24" viewBox="0 0 24 24" fill="none" xmlns="http://www.w3.org/2000/svg">
<path d="M2.77344 0.75H8.22461C9.34357 0.75 10.2489 1.65519 10.249 2.76172V8.21289C10.2837 9.35361 9.38735 10.25 8.27246 10.25H2.77344C1.65454 10.2499 0.750101 9.34477 0.75 8.23828V2.76172C0.750101 1.65523 1.65454 0.750075 2.77344 0.75Z" stroke="white" stroke-width="1.5" stroke-miterlimit="10"/>
<path d="M2.77344 13.75H8.22461C9.3404 13.75 10.2488 14.6573 10.249 15.7734V21.249C10.2832 22.3426 9.39313 23.25 8.27246 23.25H2.77344C1.65771 23.2499 0.750257 22.3426 0.75 21.2266V15.7734C0.750259 14.6574 1.65771 13.7501 2.77344 13.75Z" stroke="white" stroke-width="1.5" stroke-miterlimit="10"/>
<path d="M21.2261 11H15.7739C14.2435 11 13 9.7619 13 8.2381V2.7619C13 1.2381 14.2435 0 15.7739 0H21.2261C22.7565 0 24 1.2381 24 2.7619V8.19048C24 9.7619 22.7565 11 21.2261 11Z" fill="#3A4851"/>
<path d="M15.7734 13.75H21.2266C22.3424 13.7503 23.2497 14.6576 23.25 15.7734V21.2266C23.2497 22.3424 22.3424 23.2497 21.2266 23.25H15.7734C14.6576 23.2497 13.7503 22.3424 13.75 21.2266V15.7734C13.7503 14.6576 14.6576 13.7503 15.7734 13.75Z" stroke="white" stroke-width="1.5" stroke-miterlimit="10"/>
</svg>
