<svg width="29" height="30" viewBox="0 0 29 30" fill="none" xmlns="http://www.w3.org/2000/svg">
<path d="M5.98771 23.3327H3.70082C3.2582 23.3327 2.88934 23.2574 2.52049 23.1069C2.15164 22.9564 1.85656 22.7306 1.56148 22.4295C1.34016 22.1284 1.11885 21.8274 0.971311 21.451C0.82377 21.0747 0.75 20.6984 0.75 20.2468V18.4404V16.634V14.8277V13.0213C0.75 12.5697 0.82377 12.1934 0.971311 11.817C1.11885 11.516 1.34016 11.2149 1.63525 10.9139C1.85656 10.6881 2.22541 10.4623 2.59426 10.3117C2.96311 10.1612 3.33197 10.0859 3.77459 10.0859H9.0123H14.25H19.4877H24.7254C25.168 10.0859 25.5369 10.1612 25.9057 10.3117C26.2746 10.4623 26.5697 10.6881 26.8648 10.9891C27.1598 11.2902 27.3811 11.5913 27.5287 11.9676C27.6762 12.3439 27.75 12.7202 27.75 13.1718V14.9782V16.7846V18.4404V20.2468C27.75 20.6984 27.6762 21.0747 27.5287 21.451C27.3811 21.8274 27.1598 22.1284 26.8648 22.4295C26.5697 22.7306 26.2746 22.9564 25.9057 23.1069C25.5369 23.2574 25.168 23.3327 24.7254 23.3327H22.4385" stroke="#555555" stroke-width="1.5" stroke-linecap="round" stroke-linejoin="round"/>
<path d="M20.9644 18.5117H7.39062V28.7478H20.9644V18.5117Z" stroke="#555555" stroke-width="1.5" stroke-linecap="round" stroke-linejoin="round"/>
<path d="M7.39062 9.17975V0.75H20.9644V9.17975" stroke="#555555" stroke-width="1.5" stroke-linecap="round" stroke-linejoin="round"/>
</svg>
