<svg width="22" height="26" viewBox="0 0 22 26" fill="none" xmlns="http://www.w3.org/2000/svg">
<path d="M22 8.90534V22.062C22 24.2547 20.1745 26 17.8809 26H4.11915C1.82553 26 0 24.2547 0 22.062V18.8399C0.421277 19.0189 0.889362 19.1084 1.40426 19.1084C3.51064 19.1084 5.19574 17.4974 5.19574 15.4836C5.19574 13.4699 3.51064 11.8589 1.40426 11.8589C0.889362 11.8589 0.421277 11.9484 0 12.1274V8.90534C0 6.71256 1.82553 4.9673 4.11915 4.9673H7.48936C7.30213 4.56454 7.20851 4.11704 7.20851 3.62479C7.20851 1.61102 8.89362 0 11 0C13.1064 0 14.7915 1.61102 14.7915 3.62479C14.7915 4.11704 14.6979 4.56454 14.5106 4.9673H17.8809C20.1277 4.9673 22 6.71256 22 8.90534Z" fill="white"/>
</svg>
