<svg width="63" height="47" viewBox="0 0 63 47" fill="none" xmlns="http://www.w3.org/2000/svg">
<g clip-path="url(#clip0_364_1040)">
<path d="M4.8595 18.6817H1.15702C0.520661 18.6817 0 18.1627 0 17.5284C0 16.894 0.520661 16.375 1.15702 16.375H4.8595C5.49587 16.375 6.01653 16.894 6.01653 17.5284C6.01653 18.1627 5.49587 18.6817 4.8595 18.6817Z" fill="#333333"/>
<path d="M15.2149 46.9942H1.15702C0.520661 46.9942 0 46.4752 0 45.8409C0 45.2065 0.520661 44.6875 1.15702 44.6875H15.2149C15.8512 44.6875 16.3719 45.2065 16.3719 45.8409C16.3719 46.4752 15.8512 46.9942 15.2149 46.9942Z" fill="#333333"/>
<path d="M55.0743 20.9902H44.1404C43.5041 20.9902 42.9834 20.4711 42.9834 19.8368C42.9834 19.2024 43.5041 18.6834 44.1404 18.6834H55.0743C56.8098 18.6834 58.1983 17.2994 58.1983 15.5693C58.1983 13.8392 56.8098 12.4552 55.0743 12.4552H44.1404C43.5041 12.4552 42.9834 11.9362 42.9834 11.3018C42.9834 10.6675 43.5041 10.1484 44.1404 10.1484H55.0743C58.0826 10.1484 60.5123 12.5705 60.5123 15.5693C60.5123 18.5681 58.0826 20.9902 55.0743 20.9902Z" fill="#333333"/>
<path d="M57.5619 29.7011H44.1404C43.5041 29.7011 42.9834 29.1821 42.9834 28.5477C42.9834 27.9134 43.5041 27.3943 44.1404 27.3943H57.5041C59.2396 27.3943 60.628 26.0103 60.628 24.2802C60.628 22.5502 59.2396 21.1661 57.5041 21.1661H44.1404C43.5041 21.1661 42.9834 20.6471 42.9834 20.0127C42.9834 19.3784 43.5041 18.8594 44.1404 18.8594H57.5041C60.5123 18.8594 62.9421 21.2815 62.9421 24.2802C62.9999 27.279 60.5702 29.7011 57.5619 29.7011Z" fill="#333333"/>
<path d="M55.0743 38.3495H44.1404C43.5041 38.3495 42.9834 37.8305 42.9834 37.1962C42.9834 36.5618 43.5041 36.0428 44.1404 36.0428H55.0743C56.8098 36.0428 58.1983 34.6587 58.1983 32.9287C58.1983 31.1986 56.8098 29.8146 55.0743 29.8146H44.1404C43.5041 29.8146 42.9834 29.2955 42.9834 28.6612C42.9834 28.0268 43.5041 27.5078 44.1404 27.5078H55.0743C58.0826 27.5078 60.5123 29.9299 60.5123 32.9287C60.5123 35.9274 58.0826 38.3495 55.0743 38.3495Z" fill="#333333"/>
<path d="M50.5041 46.998H44.1404C43.5041 46.998 42.9834 46.4789 42.9834 45.8446C42.9834 45.2102 43.5041 44.6912 44.1404 44.6912H50.5041C52.2396 44.6912 53.628 43.3072 53.628 41.5771C53.628 39.847 52.2396 38.463 50.5041 38.463H44.1404C43.5041 38.463 42.9834 37.944 42.9834 37.3096C42.9834 36.6753 43.5041 36.1562 44.1404 36.1562H50.5041C53.5123 36.1562 55.9421 38.5783 55.9421 41.5771C55.9421 44.5759 53.5123 46.998 50.5041 46.998Z" fill="#333333"/>
<path d="M43.7932 46.9962H15.2146C14.8675 46.9962 14.5204 46.8232 14.289 46.5348C14.0576 46.2465 13.9998 45.8428 14.1155 45.4968L25.2808 10.5495C25.4543 10.0882 25.8593 9.74219 26.3799 9.74219H43.7932C44.4295 9.74219 44.9502 10.2612 44.9502 10.8956V45.8428C44.9502 46.5348 44.4295 46.9962 43.7932 46.9962ZM16.8345 44.6894H42.694V12.0489H27.2477L16.8345 44.6894Z" fill="#55DAF2"/>
<path d="M22.3307 15.1632C22.0414 15.1632 21.7521 15.0479 21.5207 14.8172C21.0579 14.3559 21.0579 13.6639 21.5207 13.2025L27.1323 7.60865C28.3472 6.3976 28.3472 4.43687 27.1323 3.22582C25.9174 2.01478 23.9505 2.01478 22.7356 3.22582L14.9835 10.8958C14.5207 11.3571 13.8265 11.3571 13.3637 10.8958C12.9009 10.4344 12.9009 9.74239 13.3637 9.28104L21.0579 1.55343C23.1984 -0.580311 26.6116 -0.580311 28.7521 1.55343C30.8926 3.68717 30.8926 7.08963 28.7521 9.22337L23.1406 14.8749C22.9092 15.0479 22.6199 15.1632 22.3307 15.1632Z" fill="#333333"/>
<path d="M15.446 45.09C14.9832 45.09 14.5204 44.8017 14.3469 44.3403L3.81794 16.717C3.70224 16.4287 3.70224 16.0826 3.87579 15.7943C6.13199 11.5268 12.1485 9.33541 12.3799 9.27774C12.8427 9.10473 13.4212 9.27774 13.7105 9.68142L23.256 23.2912C23.6031 23.8103 23.4874 24.5599 22.9667 24.906C22.446 25.252 21.694 25.1366 21.3469 24.6176L12.3221 11.6998C10.8179 12.3342 7.69398 13.9489 6.13199 16.371L16.4874 43.533C16.7188 44.1096 16.4295 44.8017 15.7931 45.0323C15.7353 45.09 15.5617 45.09 15.446 45.09Z" fill="#55DAF2"/>
<path d="M24.5287 46.1284C24.413 46.1284 24.2973 46.1284 24.1816 46.0708C23.5452 45.8977 23.2559 45.2634 23.4295 44.629L33.8427 10.7198C34.0163 10.0855 34.6526 9.73946 35.289 9.97014C35.9254 10.1431 36.2146 10.7775 36.0411 11.4119L25.6278 45.3211C25.5121 45.8401 25.0493 46.1284 24.5287 46.1284Z" fill="#55DAF2"/>
<path d="M37.5455 46.308C37.0248 46.308 36.562 45.962 36.4463 45.443L30.9505 22.2602C30.7769 21.6258 31.1819 20.9915 31.8182 20.8761C32.4546 20.7031 33.091 21.1068 33.2067 21.7411L38.7025 44.9816C38.8761 45.616 38.4711 46.2504 37.8348 46.3657C37.7191 46.2504 37.6612 46.308 37.5455 46.308Z" fill="#55DAF2"/>
</g>
<defs>
<clipPath id="clip0_364_1040">
<rect width="63" height="47" fill="white"/>
</clipPath>
</defs>
</svg>
